<svg width="60" height="63" viewBox="0 0 60 63" fill="none" xmlns="http://www.w3.org/2000/svg">
<path d="M52.4457 38.4516C50.2191 37.1818 47.707 36.8038 45.2165 36.7093C43.1454 36.6483 40.0367 35.2839 40.0367 31.502C40.0367 28.6827 42.3126 26.4068 45.248 26.2946C47.7385 26.2001 50.2506 25.8221 52.4753 24.5405C55.4957 22.7963 57.7 19.9243 58.6037 16.5557C59.5074 13.187 59.0366 9.59731 57.2948 6.57561C55.5379 3.55193 52.6533 1.34864 49.274 0.449169C45.8946 -0.4503 42.2964 0.0275111 39.2689 1.77777C37.2649 2.92737 35.601 4.58711 34.4463 6.58825C33.2917 8.58939 32.6875 10.8606 32.6952 13.1709C32.6952 15.7224 33.6087 18.0613 34.7664 20.2565C35.7429 22.0815 36.2134 25.4953 32.9 27.4129C30.4095 28.8382 27.3028 27.9484 25.7652 25.4658C24.4639 23.3631 22.8928 21.4042 20.6682 20.1344C14.3741 16.4942 6.31399 18.6559 2.70527 24.9322C0.964606 27.955 0.495299 31.5452 1.40049 34.9139C2.30569 38.2825 4.51132 41.1539 7.53265 42.8971C9.53281 44.0455 11.7989 44.6497 14.1053 44.6497C16.4117 44.6497 18.6778 44.0455 20.678 42.8971C22.8928 41.6233 24.4639 39.6664 25.7652 37.5657C26.8303 35.8509 29.5275 33.6577 32.9 35.6147C35.3944 37.0302 36.1622 40.1802 34.7664 42.7829C33.6186 44.9347 32.6952 47.3051 32.6952 49.8566C32.6952 57.1174 38.5838 62.9921 45.8406 63.002C49.3265 63.0004 52.6691 61.6149 55.134 59.15C57.5989 56.6852 58.9844 53.3425 58.9859 49.8566C58.9975 47.5479 58.3985 45.2772 57.2496 43.2746C56.1007 41.272 54.4427 39.6088 52.4438 38.4536L52.4457 38.4516Z" fill="#42DDA7"/>
</svg>
